<svg width="20" height="20" viewBox="0 0 20 20" fill="none" xmlns="http://www.w3.org/2000/svg">
<path d="M10.1094 19.8125C4.70317 19.8359 0.257862 15.3359 0.386768 9.83985C0.507862 4.60548 4.8438 0.281259 10.2344 0.339852C15.5743 0.398446 19.9922 4.84376 19.8477 10.3477C19.711 15.5586 15.4102 19.8399 10.1094 19.8125ZM1.57036 10.0899C1.61333 14.9844 5.58208 18.7539 10.2696 18.6719C14.8086 18.5899 18.6563 14.8906 18.6563 10.0781C18.6563 5.1836 14.6563 1.39845 9.95317 1.48829C5.41411 1.57032 1.60161 5.28126 1.57036 10.0899Z" fill="white"/>
<path d="M8.07813 16.9297C8.07813 14.6289 8.07813 12.3477 8.07813 10.043C7.57031 10.043 7.07813 10.043 6.57422 10.043C6.57422 9.26172 6.57422 8.50391 6.57422 7.72266C6.64063 7.71875 6.70703 7.71094 6.77734 7.71094C7.14063 7.71094 7.50781 7.70313 7.87109 7.71484C8.03125 7.71875 8.08594 7.67578 8.08203 7.51172C8.07422 6.91797 8.07422 6.32813 8.07813 5.73438C8.08203 5.06641 8.26953 4.46094 8.7461 3.97656C9.20703 3.50781 9.79688 3.25391 10.4375 3.21484C11.4688 3.15625 12.5039 3.16406 13.5391 3.14453C13.5508 3.14453 13.5625 3.15625 13.5859 3.16797C13.5859 3.95313 13.5859 4.74219 13.5859 5.55078C13.5117 5.55469 13.4414 5.55859 13.375 5.55859C12.9063 5.55859 12.4375 5.55859 11.9688 5.55859C11.4961 5.5625 11.2188 5.84375 11.2188 6.30859C11.2188 6.75 11.2188 7.19531 11.2227 7.63672C11.2227 7.64844 11.2305 7.66016 11.2422 7.70313C12.0156 7.70313 12.7969 7.70313 13.6172 7.70313C13.5156 8.49609 13.4219 9.25391 13.3203 10.0391C12.6133 10.0391 11.9219 10.0391 11.2109 10.0391C11.2109 12.3516 11.2109 14.6406 11.2109 16.9375C10.1602 16.9297 9.13672 16.9297 8.07813 16.9297Z" fill="white"/>
</svg>
