<svg width="20" height="20" viewBox="0 0 20 20" fill="none" xmlns="http://www.w3.org/2000/svg">
<path d="M19.7266 10.0391C19.7266 11.3984 19.6992 12.7617 19.7344 14.1211C19.793 16.5273 18.2812 18.3867 16.3555 19.2148C15.582 19.5469 14.7695 19.7227 13.9297 19.7227C11.3008 19.7266 8.66797 19.7617 6.03906 19.7109C4.05859 19.6719 2.42969 18.8438 1.26172 17.2109C0.648437 16.3516 0.355469 15.375 0.355469 14.3164C0.355469 11.5156 0.355469 8.71875 0.355469 5.91797C0.355469 3.63282 1.46875 2.03516 3.44531 0.996099C4.30469 0.546881 5.23828 0.355474 6.21094 0.351568C8.76172 0.351568 11.3164 0.335943 13.8672 0.359381C15.8477 0.375006 17.5 1.13282 18.7187 2.72657C19.3984 3.61719 19.7266 4.64063 19.7266 5.76563C19.7266 7.18751 19.7266 8.61329 19.7266 10.0391ZM1.79687 10.0391C1.79687 11.4727 1.79687 12.9023 1.79687 14.3359C1.79687 14.9766 1.94531 15.5781 2.27734 16.1211C3.14844 17.5469 4.46484 18.2422 6.09765 18.2695C8.71875 18.3086 11.3437 18.2852 13.9687 18.2773C14.6133 18.2773 15.2383 18.1445 15.8203 17.8672C17.4062 17.1094 18.293 15.9023 18.2851 14.0898C18.2695 11.3164 18.2812 8.54297 18.2812 5.76954C18.2812 4.98438 18.0586 4.26563 17.5937 3.63282C16.6953 2.41797 15.4531 1.82032 13.9687 1.80469C11.3516 1.77344 8.73437 1.79297 6.11719 1.79688C5.55859 1.79688 5.01953 1.91016 4.49609 2.10547C3.05859 2.64063 1.72266 3.9961 1.78516 5.99219C1.83203 7.34375 1.79687 8.69141 1.79687 10.0391Z" fill="white"/>
<path d="M10.0625 14.1797C7.54297 14.1797 5.51172 12.1719 5.50782 9.67188C5.50391 7.21094 7.55079 5.19532 10.0547 5.19532C12.5664 5.19141 14.6055 7.20313 14.6094 9.6836C14.6094 12.1602 12.5742 14.1758 10.0625 14.1797ZM10.0625 12.7344C11.7773 12.7344 13.168 11.3633 13.1641 9.67579C13.1602 8.00391 11.7695 6.63672 10.0625 6.63672C8.34766 6.63672 6.94922 8.00001 6.94922 9.6836C6.95313 11.3711 8.34766 12.7383 10.0625 12.7344Z" fill="white"/>
<path d="M15.1368 3.82812C15.6641 3.82812 16.0938 4.27734 16.0938 4.82812C16.0899 5.37891 15.6563 5.82422 15.1289 5.82031C14.6094 5.81641 14.1836 5.37109 14.1836 4.83203C14.1797 4.28125 14.6094 3.82812 15.1368 3.82812Z" fill="white"/>
</svg>
